<?xml version="1.0" encoding="utf-8"?>
<!-- Generator: Adobe Illustrator 21.1.0, SVG Export Plug-In . SVG Version: 6.00 Build 0)  -->
<svg version="1.1" id="Ebene_1" xmlns="http://www.w3.org/2000/svg" xmlns:xlink="http://www.w3.org/1999/xlink" x="0px" y="0px"
	 viewBox="0 0 149.9 86.4" style="enable-background:new 0 0 149.9 86.4;" xml:space="preserve">
<style type="text/css">
	.st0{fill:none;}
	.st1{fill:#F79E1B;}
	.st2{fill:#EB001B;}
</style>
<title>Asset 1</title>
<g id="Layer_2">
	<g id="Layer_1-2">
		<rect x="-20.4" class="st0" width="186.3" height="86.4"/>
		<path class="st1" d="M12.9,51.4c-0.8-0.5-1.6-0.9-2.5-1.2c-0.9-0.3-1.8-0.4-2.7-0.4c-0.6,0-1.1,0.1-1.7,0.2
			c-0.5,0.1-0.9,0.3-1.3,0.5c-0.3,0.2-0.6,0.5-0.8,0.9c-0.2,0.3-0.3,0.7-0.3,1.1c0,0.4,0.1,0.7,0.3,1c0.2,0.3,0.4,0.5,0.8,0.7
			c0.4,0.2,0.8,0.4,1.2,0.5C6.4,54.9,7,55,7.5,55l1.3,0.2c0.7,0.1,1.5,0.3,2.2,0.5s1.3,0.5,1.9,0.9c0.5,0.4,1,0.9,1.3,1.5
			c0.4,0.7,0.5,1.4,0.5,2.2c0,0.9-0.2,1.7-0.6,2.5c-0.4,0.7-0.9,1.3-1.6,1.8c-0.7,0.5-1.5,0.9-2.3,1.1c-1,0.1-2,0.3-2.9,0.3
			c-0.6,0-1.3-0.1-1.9-0.2c-0.7-0.1-1.3-0.3-2-0.5c-0.6-0.2-1.2-0.5-1.8-0.8S0.5,63.8,0,63.4L1.6,61c0.3,0.3,0.7,0.6,1.1,0.8
			c0.9,0.5,1.9,0.9,3,1.1C6.2,63,6.8,63,7.3,63.1c0.6,0,1.1,0,1.7-0.2c0.5-0.1,0.9-0.3,1.4-0.5c0.4-0.2,0.7-0.5,0.9-0.8
			s0.3-0.7,0.3-1.2c0-0.7-0.4-1.3-1-1.6c-1-0.5-2-0.7-3.1-0.8l-1.4-0.2c-0.7-0.1-1.3-0.3-2-0.5c-0.6-0.2-1.2-0.5-1.7-0.9
			s-0.9-0.9-1.2-1.5c-0.3-0.7-0.5-1.4-0.5-2.2s0.2-1.7,0.6-2.4c0.2-0.7,0.8-1.3,1.4-1.8C3.4,48,4.2,47.6,5,47.4
			C5.9,47.1,6.9,47,7.8,47c1.2,0,2.4,0.2,3.6,0.5c1.1,0.3,2.1,0.8,3,1.4L12.9,51.4z M22.9,52.8c0.8,0,1.6,0.2,2.4,0.5
			c0.7,0.3,1.3,0.8,1.9,1.3c0.5,0.6,0.9,1.3,1.2,2.1c0.3,0.9,0.5,1.8,0.4,2.7c0,0.2,0,0.3,0,0.5s0,0.3,0,0.5h-9.3
			c0.1,0.5,0.2,1,0.5,1.5c0.2,0.4,0.5,0.7,0.8,1s0.7,0.5,1.1,0.6s0.8,0.2,1.3,0.2c0.6,0,1.3-0.1,1.9-0.3s1.2-0.6,1.7-1l1.4,1.9
			c-0.7,0.6-1.5,1.1-2.4,1.4s-1.8,0.4-2.7,0.4c-0.9,0-1.8-0.2-2.6-0.5c-0.8-0.3-1.4-0.8-2-1.3c-0.6-0.6-1-1.3-1.3-2.1
			c-0.3-0.9-0.5-1.8-0.5-2.7s0.1-1.8,0.5-2.7c0.3-0.8,0.7-1.5,1.3-2.1s1.2-1,2-1.3C21.2,53,22,52.8,22.9,52.8L22.9,52.8z M22.8,55.2
			c-0.4,0-0.9,0.1-1.3,0.2c-0.4,0.1-0.7,0.4-1,0.6c-0.3,0.3-0.5,0.6-0.7,1s-0.3,0.8-0.4,1.2h6.5c-0.1-0.8-0.4-1.6-1-2.3
			C24.4,55.5,23.6,55.2,22.8,55.2L22.8,55.2z M37.3,52.8c0.9,0,1.8,0.2,2.6,0.5s1.5,0.8,2,1.5l-1.8,1.9c-0.4-0.4-0.9-0.7-1.4-1
			c-0.5-0.2-1.1-0.3-1.6-0.3s-1,0.1-1.5,0.3c-0.4,0.2-0.8,0.5-1.1,0.9s-0.6,0.8-0.8,1.3c-0.4,1.1-0.4,2.2,0,3.2
			c0.2,0.5,0.4,0.9,0.8,1.3c0.3,0.4,0.7,0.6,1.2,0.8s1,0.3,1.5,0.3c0.6,0,1.2-0.1,1.7-0.4c0.5-0.2,1-0.6,1.4-0.9l1.7,1.9
			c-0.6,0.7-1.3,1.2-2.1,1.5s-1.7,0.5-2.6,0.5c-0.9,0-1.8-0.2-2.7-0.5c-1.6-0.6-2.8-1.9-3.4-3.5c-0.6-1.7-0.6-3.5,0-5.2
			c0.6-1.6,1.8-2.8,3.4-3.5C35.4,53,36.4,52.8,37.3,52.8L37.3,52.8z M56,60.3c0,0.9-0.1,1.8-0.5,2.6c-0.3,0.7-0.7,1.3-1.3,1.8
			c-0.5,0.5-1.2,0.8-1.8,1c-1.4,0.4-2.9,0.4-4.3,0c-0.7-0.2-1.3-0.5-1.9-1c-0.6-0.5-1-1.1-1.3-1.8c-0.3-0.8-0.5-1.7-0.5-2.6v-7.2
			h2.7v7c0,0.5,0.1,1,0.2,1.5c0.1,0.4,0.4,0.7,0.7,1s0.6,0.5,1,0.6c0.8,0.2,1.6,0.2,2.4,0c0.4-0.1,0.7-0.3,1-0.6s0.5-0.6,0.7-1
			c0.2-0.5,0.3-1,0.2-1.5v-7H56L56,60.3z M65.9,52.8c0.4,0,0.8,0,1.1,0.1c0.3,0.1,0.7,0.1,1,0.3l-0.7,2.7c-0.3-0.2-0.7-0.3-1-0.3
			c-0.4-0.1-0.7-0.1-1.1-0.1s-0.8,0.1-1.2,0.2c-0.4,0.1-0.7,0.4-0.9,0.7c-0.3,0.3-0.5,0.7-0.6,1.1c-0.2,0.5-0.2,0.9-0.2,1.4v6.9
			h-2.8V53.1h2.7v1.4c0.4-0.6,0.9-1,1.6-1.3S65.2,52.8,65.9,52.8L65.9,52.8z M75.1,52.8c0.8,0,1.6,0.2,2.4,0.5
			c0.7,0.3,1.3,0.8,1.9,1.3c0.6,0.6,1,1.3,1.3,2.1c0.3,0.9,0.5,1.8,0.4,2.7c0,0.2,0,0.3,0,0.5s0,0.3,0,0.5h-9.3
			c0.1,0.5,0.2,1,0.5,1.5c0.2,0.4,0.5,0.7,0.8,1s0.7,0.5,1.1,0.6s0.8,0.2,1.3,0.2c0.6,0,1.3-0.1,1.9-0.3s1.2-0.6,1.7-1l1.4,1.9
			c-0.7,0.6-1.5,1.1-2.4,1.4s-1.8,0.4-2.7,0.4c-0.9,0-1.8-0.2-2.6-0.5c-0.8-0.3-1.4-0.8-2-1.3c-0.6-0.6-1-1.3-1.3-2.1
			c-0.3-0.9-0.5-1.8-0.5-2.7s0.1-1.8,0.5-2.7c0.3-0.8,0.7-1.5,1.3-2.1c0.6-0.6,1.2-1,2-1.3C73.4,53,74.2,52.8,75.1,52.8L75.1,52.8z
			 M75,55.2c-0.4,0-0.9,0.1-1.3,0.2c-0.4,0.1-0.7,0.4-1,0.6c-0.3,0.3-0.5,0.6-0.7,1s-0.3,0.8-0.4,1.2h6.5c-0.1-0.8-0.4-1.6-1-2.3
			C76.6,55.5,75.8,55.2,75,55.2L75,55.2z M92.7,47c0.8,0,1.6,0.1,2.3,0.3c0.7,0.2,1.4,0.4,2.1,0.8c0.6,0.3,1.2,0.7,1.8,1.2
			c0.5,0.5,1,1,1.3,1.6l-2.5,1.6c-0.5-0.8-1.3-1.5-2.2-1.9c-0.9-0.5-2-0.7-3-0.7c-0.9,0-1.8,0.2-2.6,0.5c-0.8,0.3-1.4,0.8-2,1.4
			c-0.6,0.6-1,1.3-1.3,2.1c-0.7,1.7-0.7,3.7,0,5.4c0.3,0.8,0.8,1.5,1.3,2.1c0.6,0.6,1.2,1,2,1.4c0.8,0.3,1.7,0.5,2.6,0.5
			c2,0,3.9-0.9,5.1-2.6l2.4,1.8c-0.4,0.6-0.9,1.1-1.4,1.5c-0.5,0.5-1.1,0.9-1.7,1.2c-0.7,0.3-1.3,0.6-2.1,0.7
			c-2.1,0.5-4.2,0.3-6.2-0.5c-2.3-0.9-4.1-2.7-5-5c-0.9-2.4-0.9-5.1,0-7.6c0.9-2.3,2.7-4.1,5-5C90.1,47.2,91.4,47,92.7,47z
			 M108.8,52.8c0.9,0,1.8,0.2,2.7,0.5c0.8,0.3,1.5,0.8,2.1,1.4c0.6,0.6,1.1,1.3,1.4,2.1c0.7,1.7,0.7,3.5,0,5.2
			c-0.3,0.8-0.8,1.5-1.4,2.1s-1.3,1.1-2.1,1.4c-1.7,0.7-3.6,0.7-5.4,0c-0.8-0.3-1.5-0.8-2.1-1.4s-1.1-1.3-1.4-2
			c-0.7-1.7-0.7-3.5,0-5.2c0.3-0.8,0.8-1.5,1.4-2.1s1.3-1.1,2.1-1.4C107,53,107.9,52.8,108.8,52.8L108.8,52.8z M108.8,55.3
			c-0.5,0-1.1,0.1-1.6,0.3s-0.9,0.5-1.2,0.8c-0.4,0.4-0.6,0.8-0.8,1.3c-0.4,1-0.4,2.2,0,3.2c0.2,0.5,0.5,0.9,0.8,1.3
			c0.4,0.4,0.8,0.6,1.2,0.8c1,0.4,2.1,0.4,3.1,0c0.9-0.4,1.7-1.1,2.1-2c0.4-1,0.4-2.2,0-3.2c-0.2-0.5-0.5-0.9-0.8-1.3
			c-0.4-0.4-0.8-0.6-1.2-0.8C109.9,55.5,109.4,55.4,108.8,55.3L108.8,55.3z M123.8,52.8c1.5-0.1,3,0.6,3.9,1.8v-7.8h2.7v18.8h-2.7
			v-1.5c-0.4,0.6-1,1-1.6,1.3c-0.7,0.3-1.5,0.5-2.3,0.5c-1.7,0-3.3-0.7-4.4-1.8c-0.6-0.6-1-1.3-1.3-2.1c-0.6-1.7-0.6-3.6,0-5.3
			c0.3-0.8,0.8-1.5,1.3-2.1C120.5,53.4,122.1,52.8,123.8,52.8L123.8,52.8z M124.1,55.3c-0.5,0-1.1,0.1-1.6,0.3
			c-0.4,0.2-0.9,0.5-1.2,0.9c-0.3,0.4-0.6,0.8-0.7,1.3c-0.3,1-0.3,2.1,0,3.1c0.2,0.5,0.4,0.9,0.7,1.3c0.3,0.4,0.7,0.7,1.2,0.9
			c1,0.4,2.1,0.4,3.1,0c0.5-0.2,0.9-0.5,1.2-0.8c0.3-0.3,0.6-0.7,0.8-1.2c0.4-1,0.4-2.2,0-3.2c-0.2-0.5-0.4-0.9-0.8-1.3
			c-0.3-0.4-0.7-0.6-1.2-0.8C125.1,55.5,124.6,55.4,124.1,55.3L124.1,55.3z M139.5,52.8c0.8,0,1.6,0.2,2.4,0.5
			c0.7,0.3,1.3,0.8,1.9,1.3c0.5,0.6,0.9,1.3,1.2,2.1c0.3,0.9,0.5,1.8,0.4,2.7c0,0.2,0,0.3,0,0.5s0,0.3,0,0.5h-9.2
			c0.1,0.5,0.2,1,0.5,1.5c0.2,0.4,0.5,0.7,0.9,1c0.3,0.3,0.7,0.5,1.1,0.6c0.4,0.1,0.8,0.2,1.3,0.2c0.6,0,1.3-0.1,1.9-0.3
			c0.6-0.2,1.2-0.6,1.7-1l1.4,1.9c-0.7,0.6-1.5,1.1-2.4,1.4s-1.8,0.4-2.7,0.4s-1.8-0.2-2.6-0.5s-1.4-0.8-2-1.3
			c-0.6-0.6-1-1.3-1.3-2.1c-0.3-0.9-0.5-1.8-0.5-2.7s0.1-1.8,0.5-2.7c0.3-0.8,0.7-1.5,1.3-2.1s1.2-1,2-1.3
			C137.8,53,138.7,52.8,139.5,52.8L139.5,52.8z M146.7,65.6V65h0.2v-0.1h-0.6V65h0.3v0.6H146.7z M147.9,65.6v-0.8h-0.2l-0.2,0.5
			l-0.2-0.5h-0.2v0.8h0.1V65l0.2,0.5h0.1l0.2-0.5v0.6H147.9z M139.4,55.2c-0.4,0-0.9,0.1-1.3,0.2c-0.4,0.1-0.7,0.4-1,0.6
			c-0.3,0.3-0.5,0.6-0.7,1s-0.3,0.8-0.4,1.2h6.5c-0.1-0.9-0.4-1.7-1-2.3C141,55.5,140.2,55.2,139.4,55.2L139.4,55.2z"/>
		<path class="st2" d="M21.9,39.9h-3.1V24.3L13.3,38h-3.2L4.6,24.4v15.4H1.5V20.9h4.7l5.5,13.5l5.5-13.5h4.7V39.9z M38,39.9h-2.8
			v-1.5c-0.5,0.6-1,1-1.7,1.4s-1.6,0.5-2.4,0.5c-1.7,0-3.4-0.7-4.6-1.9c-0.6-0.6-1.1-1.4-1.4-2.2c-0.7-1.8-0.7-3.7,0-5.5
			c0.3-0.8,0.8-1.5,1.4-2.2c1.2-1.2,2.9-1.9,4.6-1.9c0.8,0,1.6,0.2,2.4,0.5c0.7,0.3,1.2,0.8,1.7,1.4v-1.6H38V39.9z M31.4,29.2
			c-0.6,0-1.1,0.1-1.6,0.3c-0.5,0.2-0.9,0.5-1.2,0.9c-0.3,0.4-0.6,0.8-0.8,1.3c-0.4,1-0.4,2.2,0,3.2c0.2,0.5,0.4,0.9,0.8,1.3
			c0.3,0.4,0.8,0.7,1.2,0.9c1,0.4,2.2,0.4,3.2,0c0.5-0.2,0.9-0.5,1.2-0.9s0.6-0.8,0.8-1.3c0.4-1.1,0.4-2.2,0-3.3
			c-0.2-0.5-0.5-0.9-0.8-1.3s-0.8-0.7-1.2-0.9C32.5,29.3,32,29.2,31.4,29.2z M51,30.2c-0.2-0.1-0.5-0.3-0.7-0.4
			c-0.3-0.1-0.7-0.3-1-0.4c-0.4-0.1-0.7-0.2-1.1-0.3C47.8,29,47.4,29,47,29c-0.6,0-1.3,0.1-1.8,0.4c-0.4,0.2-0.6,0.7-0.6,1.1
			c0,0.2,0.1,0.4,0.2,0.6c0.1,0.2,0.3,0.3,0.4,0.4c0.2,0.1,0.4,0.2,0.7,0.2c0.3,0.1,0.5,0.1,0.8,0.2l1.3,0.2
			c1.2,0.1,2.3,0.6,3.3,1.2c0.8,0.7,1.2,1.7,1.2,2.7c0,0.6-0.1,1.2-0.4,1.7c-0.3,0.5-0.7,1-1.2,1.3c-0.6,0.4-1.2,0.7-1.8,0.9
			c-0.8,0.2-1.7,0.3-2.5,0.3c-0.3,0-0.7,0-1.2-0.1c-0.5,0-0.9-0.1-1.4-0.2c-0.5-0.1-1-0.3-1.5-0.5s-1-0.5-1.5-0.8l1.3-2.1
			c0.2,0.2,0.5,0.4,0.8,0.5c0.3,0.2,0.6,0.3,0.9,0.4c0.4,0.1,0.8,0.2,1.2,0.3c0.5,0.1,1,0.1,1.4,0.1c0.8,0,1.5-0.1,2.2-0.4
			c0.5-0.2,0.7-0.7,0.8-1.1c0-0.4-0.2-0.7-0.5-0.9c-0.5-0.3-1.1-0.5-1.7-0.5l-1.3-0.2c-1.2-0.1-2.3-0.5-3.3-1.3
			c-0.7-0.6-1.2-1.6-1.1-2.5c0-0.6,0.1-1.2,0.4-1.7c0.2-0.5,0.6-1,1.1-1.3c0.5-0.4,1.1-0.7,1.7-0.8c0.7-0.2,1.5-0.3,2.2-0.3
			c1,0,1.9,0.1,2.9,0.4c0.8,0.2,1.6,0.5,2.4,1L51,30.2z M64.4,29.5h-5v5.6c0,0.4,0.1,0.8,0.2,1.1c0.1,0.3,0.2,0.5,0.4,0.8
			c0.2,0.2,0.4,0.3,0.7,0.4c0.3,0.1,0.5,0.1,0.8,0.1c0.5,0,0.9-0.1,1.3-0.3c0.4-0.2,0.9-0.4,1.3-0.6l1.1,2.3
			c-0.6,0.4-1.1,0.7-1.8,0.9c-0.7,0.3-1.5,0.4-2.2,0.4c-1.3,0.1-2.5-0.4-3.4-1.2c-0.9-1.1-1.4-2.4-1.2-3.8v-5.7H54v-2.6h2.6V23h2.8
			v3.9h5L64.4,29.5z M73.1,26.6c0.9,0,1.7,0.2,2.5,0.5c0.7,0.3,1.4,0.8,1.9,1.4c0.6,0.6,1,1.4,1.3,2.1c0.3,0.9,0.5,1.8,0.4,2.8
			c0,0.2,0,0.4,0,0.5s0,0.3,0,0.5h-9.6c0.1,0.5,0.2,1,0.5,1.5c0.2,0.4,0.5,0.7,0.9,1c0.3,0.3,0.7,0.5,1.2,0.6
			c0.4,0.1,0.9,0.2,1.3,0.2c0.7,0,1.4-0.1,2-0.4c0.6-0.2,1.3-0.6,1.8-1l1.4,2c-0.7,0.6-1.6,1.1-2.5,1.4c-0.9,0.3-1.9,0.4-2.8,0.4
			s-1.9-0.1-2.7-0.4c-0.8-0.3-1.5-0.8-2.1-1.4c-0.6-0.6-1.1-1.3-1.4-2.2s-0.5-1.8-0.5-2.8c0-0.9,0.1-1.9,0.5-2.8
			c0.3-0.8,0.7-1.5,1.3-2.2c0.6-0.6,1.2-1.1,2-1.4C71.3,26.7,72.2,26.6,73.1,26.6L73.1,26.6z M73,29.1c-0.5,0-0.9,0.1-1.3,0.2
			s-0.7,0.4-1,0.7c-0.3,0.3-0.5,0.6-0.7,1s-0.3,0.9-0.4,1.3h6.7c-0.1-0.9-0.5-1.7-1.1-2.4C74.6,29.4,73.9,29.1,73,29.1z M89,26.6
			c0.4,0,0.8,0,1.2,0.1c0.3,0.1,0.7,0.2,1,0.3l-0.7,2.7c-0.3-0.2-0.7-0.3-1-0.4c-0.4-0.1-0.7-0.1-1.1-0.1s-0.8,0.1-1.2,0.2
			c-0.4,0.1-0.7,0.4-1,0.7c-0.3,0.3-0.5,0.7-0.6,1.1c-0.2,0.5-0.2,1-0.2,1.5v7.1h-2.9v-13h2.8v1.5c0.4-0.6,0.9-1,1.6-1.3
			C87.5,26.7,88.3,26.6,89,26.6L89,26.6z M98.7,26.6c0.9,0,1.9,0.2,2.7,0.5c0.8,0.3,1.5,0.9,2.1,1.5l-1.8,1.9
			c-0.4-0.4-0.9-0.7-1.4-1c-0.5-0.2-1.1-0.4-1.7-0.4c-0.5,0-1,0.1-1.5,0.3c-0.5,0.2-0.9,0.5-1.2,0.9c-0.4,0.4-0.6,0.8-0.8,1.3
			c-0.4,1.1-0.4,2.3,0,3.4c0.2,0.5,0.5,0.9,0.8,1.3c0.3,0.4,0.8,0.7,1.2,0.8c0.5,0.2,1,0.3,1.5,0.3c0.6,0,1.2-0.1,1.7-0.4
			c0.5-0.3,1-0.6,1.4-1l1.7,2c-0.6,0.7-1.3,1.2-2.1,1.5c-0.9,0.4-1.8,0.5-2.7,0.5c-1,0-1.9-0.2-2.8-0.5c-1.6-0.6-2.9-2-3.5-3.6
			c-0.6-1.7-0.6-3.7,0-5.4c0.6-1.6,1.9-2.9,3.5-3.6C96.8,26.7,97.7,26.5,98.7,26.6L98.7,26.6z M118.6,39.9h-2.8v-1.5
			c-0.5,0.6-1,1-1.7,1.4s-1.6,0.5-2.4,0.5c-1.7,0-3.4-0.7-4.6-1.9c-0.6-0.6-1.1-1.4-1.4-2.2c-0.7-1.8-0.7-3.7,0-5.5
			c0.3-0.8,0.8-1.5,1.4-2.2c1.2-1.2,2.9-1.9,4.6-1.9c0.8,0,1.6,0.2,2.4,0.5c0.7,0.3,1.2,0.8,1.7,1.4v-1.6h2.8V39.9z M112,29.2
			c-0.6,0-1.1,0.1-1.6,0.3c-0.5,0.2-0.9,0.5-1.2,0.9c-0.3,0.4-0.6,0.8-0.8,1.3c-0.4,1-0.4,2.2,0,3.2c0.2,0.5,0.4,0.9,0.8,1.3
			c0.3,0.4,0.8,0.7,1.2,0.9c1,0.4,2.2,0.4,3.2,0c0.5-0.2,0.9-0.5,1.2-0.9c0.3-0.4,0.6-0.8,0.8-1.3c0.4-1.1,0.4-2.2,0-3.3
			c-0.2-0.5-0.5-0.9-0.8-1.3s-0.8-0.7-1.2-0.9C113.1,29.3,112.6,29.2,112,29.2L112,29.2z M129.3,26.6c0.4,0,0.8,0,1.2,0.1
			c0.3,0.1,0.7,0.2,1,0.3l-0.7,2.8c-0.3-0.2-0.7-0.3-1-0.4c-0.4-0.1-0.7-0.1-1.1-0.1c-0.4,0-0.8,0.1-1.2,0.2c-0.4,0.1-0.7,0.4-1,0.7
			c-0.3,0.3-0.5,0.7-0.6,1.1c-0.2,0.5-0.2,1-0.2,1.5v7.1h-2.8v-13h2.8v1.5c0.4-0.6,0.9-1.1,1.6-1.3
			C127.8,26.7,128.6,26.6,129.3,26.6L129.3,26.6z M138.6,26.6c0.8,0,1.6,0.2,2.4,0.5c0.7,0.3,1.2,0.8,1.7,1.4v-8.1h2.8v19.5h-2.8
			v-1.5c-0.5,0.6-1,1-1.7,1.4s-1.6,0.5-2.4,0.5c-1.7,0-3.4-0.7-4.6-1.9c-0.6-0.6-1.1-1.4-1.4-2.2c-0.7-1.8-0.7-3.7,0-5.5
			c0.3-0.8,0.8-1.5,1.4-2.2C135.2,27.2,136.8,26.6,138.6,26.6L138.6,26.6z M148.8,38.7c0.1,0,0.2,0,0.3,0.1c0.1,0,0.2,0.1,0.3,0.2
			c0.1,0.1,0.1,0.2,0.2,0.3c0.1,0.2,0.1,0.4,0,0.6c0,0.1-0.1,0.2-0.2,0.3c-0.1,0.1-0.2,0.1-0.3,0.2c-0.1,0-0.2,0.1-0.3,0.1
			c-0.3,0-0.6-0.2-0.8-0.5c-0.1-0.2-0.1-0.4,0-0.6c0.1-0.2,0.2-0.4,0.4-0.4C148.6,38.7,148.7,38.7,148.8,38.7L148.8,38.7z
			 M148.8,40.2c0.1,0,0.2,0,0.2,0c0.1,0,0.1-0.1,0.2-0.1c0.2-0.3,0.2-0.7,0-0.9c-0.1-0.1-0.1-0.1-0.2-0.1c-0.1,0-0.2,0-0.2,0
			c-0.1,0-0.2,0-0.2,0c-0.3,0.2-0.5,0.5-0.3,0.9c0,0.1,0.1,0.1,0.1,0.1c0.1,0.1,0.1,0.1,0.2,0.1C148.6,40.1,148.7,40.1,148.8,40.2
			L148.8,40.2z M148.8,39.2c0.1,0,0.2,0,0.2,0.1c0.1,0,0.1,0.1,0.1,0.2c0,0.1,0,0.1-0.1,0.2c0,0-0.1,0.1-0.2,0.1l0.2,0.3h-0.2
			l-0.2-0.3h-0.1v0.3l0,0v-0.8L148.8,39.2z M148.6,39.3v0.2h0.2h0.1v-0.1v-0.1h-0.1L148.6,39.3z M138.9,29.3c-0.6,0-1.1,0.1-1.6,0.3
			c-0.5,0.2-0.9,0.5-1.2,0.9s-0.6,0.8-0.8,1.3c-0.4,1-0.4,2.2,0,3.2c0.2,0.5,0.4,0.9,0.8,1.3c0.3,0.4,0.8,0.7,1.2,0.9
			c1,0.4,2.2,0.4,3.2,0c0.5-0.2,0.9-0.5,1.2-0.9c0.4-0.4,0.7-0.9,0.9-1.4c0.4-1.1,0.4-2.2,0-3.3c-0.2-0.5-0.5-0.9-0.8-1.3
			s-0.8-0.7-1.2-0.9C140,29.3,139.5,29.2,138.9,29.3L138.9,29.3z"/>
	</g>
</g>
</svg>
